<svg xmlns="http://www.w3.org/2000/svg" width="29.769" height="29.765" viewBox="0 0 29.769 29.765"><g transform="translate(-410 -755.47)"><path d="M29.037,10.286A14.879,14.879,0,1,1,14.883,0,14.879,14.879,0,0,1,29.037,10.286M14.883,1.343a13.55,13.55,0,1,0,12.9,9.358,13.549,13.549,0,0,0-12.9-9.358" transform="translate(410 755.47)"/><path d="M17.794,10.075h1.659V7.546c-.257,0-.526-.061-.8-.079H17.162a3.68,3.68,0,0,0-2.1.654,3.173,3.173,0,0,0-1.261,2.1,7.484,7.484,0,0,0-.1,1.013v1.985H11.285v2.818h2.394v7.078h2.978V16.013h2.4l.287-2.789H16.553V11.238a1.117,1.117,0,0,1,1.24-1.163" transform="translate(409.523 755.155)" fill-rule="evenodd"/></g></svg>