<svg xmlns="http://www.w3.org/2000/svg" width="29.769" height="29.765" viewBox="0 0 29.769 29.765"><g transform="translate(-482.606 -755.47)"><path d="M104.848,10.286A14.881,14.881,0,1,1,90.693,0a14.881,14.881,0,0,1,14.155,10.286M90.693,1.343A13.55,13.55,0,1,0,103.6,10.7a13.549,13.549,0,0,0-12.9-9.358" transform="translate(406.795 755.47)"/><path d="M85.5,12.642h2.849v9.164H85.5Zm1.428-4.558a1.654,1.654,0,1,1-.009,0h.009" transform="translate(406.396 755.129)"/><path d="M90.315,12.834h2.729v1.247a2.979,2.979,0,0,1,2.7-1.478c2.878,0,3.415,1.9,3.415,4.366v5.024H96.381V17.538c0-1.062,0-2.431-1.478-2.431s-1.711,1.163-1.711,2.3v4.539H90.315Z" transform="translate(406.182 754.938)"/></g></svg>