<svg xmlns="http://www.w3.org/2000/svg" width="35.664" height="35.664" viewBox="0 0 35.664 35.664"><path d="M17.972,7.706H8.853a1.07,1.07,0,0,0-1.07,1.07v9.273a1.07,1.07,0,0,0,1.07,1.07h9.119a1.07,1.07,0,0,0,1.07-1.07V8.776A1.07,1.07,0,0,0,17.972,7.706ZM16.9,16.979H9.923V9.846H16.9Zm-2.063-4.993H11.986v2.853h2.853ZM3.427,16.266a1.427,1.427,0,0,0,1.427-1.427V6.28A1.428,1.428,0,0,1,6.28,4.853h8.559a1.427,1.427,0,0,0,0-2.853H6.28A4.284,4.284,0,0,0,2,6.28v8.559a1.427,1.427,0,0,0,1.427,1.427Zm14.545,4.28H8.853a1.07,1.07,0,0,0-1.07,1.07v9.273a1.07,1.07,0,0,0,1.07,1.07h9.119a1.07,1.07,0,0,0,1.07-1.07V21.615A1.07,1.07,0,0,0,17.972,20.545ZM16.9,29.818H9.923V22.685H16.9Zm-2.063-4.993H11.986v2.853h2.853Zm0,9.986H6.28a1.428,1.428,0,0,1-1.427-1.427V24.825a1.427,1.427,0,1,0-2.853,0v8.559a4.284,4.284,0,0,0,4.28,4.28h8.559a1.427,1.427,0,0,0,0-2.853ZM36.237,23.4a1.427,1.427,0,0,0-1.427,1.427v8.559a1.428,1.428,0,0,1-1.427,1.427H24.825a1.427,1.427,0,1,0,0,2.853h8.559a4.284,4.284,0,0,0,4.28-4.28V24.825A1.427,1.427,0,0,0,36.237,23.4ZM24.112,28.391H21.259v2.853h2.853ZM21.259,24.1h2.853V21.25H21.259ZM33.384,2H24.825a1.427,1.427,0,1,0,0,2.853h8.559A1.428,1.428,0,0,1,34.811,6.28v8.559a1.427,1.427,0,0,0,2.853,0V6.28A4.284,4.284,0,0,0,33.384,2ZM24.825,14.839h2.853V11.986H24.825Zm2.853,12.839V24.825H24.825v2.853Zm3.133-8.559a1.07,1.07,0,0,0,1.07-1.07V8.776a1.07,1.07,0,0,0-1.07-1.07H21.692a1.07,1.07,0,0,0-1.07,1.07v9.273a1.07,1.07,0,0,0,1.07,1.07ZM22.762,9.846h6.979v7.133H22.762Zm8.482,11.4H28.391V24.1h2.853Zm-2.853,9.994h2.853V28.391H28.391Z" transform="translate(-2 -2)"/></svg>