<svg xmlns="http://www.w3.org/2000/svg" width="29.769" height="29.765" viewBox="0 0 29.769 29.765"><g transform="translate(-518.907 -755.47)"><path d="M142.751,10.286A14.881,14.881,0,1,1,128.6,0a14.881,14.881,0,0,1,14.155,10.286M128.6,1.343A13.55,13.55,0,1,0,141.5,10.7a13.549,13.549,0,0,0-12.9-9.358" transform="translate(405.193 755.47)"/><path d="M122.9,20.278a1.756,1.756,0,0,1-1.173-1.09c-.5-1.39-.653-7.177.317-8.318a1.876,1.876,0,0,1,1.272-.675c2.612-.277,10.689-.238,11.622.1a1.822,1.822,0,0,1,1.141,1.052c.554,1.428.565,6.641-.071,8.019a1.783,1.783,0,0,1-.825.825c-.966.555-11,.544-12.282.085m4.15-2.721,4.7-2.44-4.7-2.462Z" transform="translate(404.871 755.047)" fill-rule="evenodd"/></g></svg>