<svg width="22" height="19" viewBox="0 0 22 19" fill="none" xmlns="http://www.w3.org/2000/svg">
<path d="M20.7492 6.12895C20.6823 4.58687 20.4948 3.58298 19.9695 2.78884L18.8604 1.61468C17.6939 0.75 16.0482 0.75 12.757 0.75H8.74218C5.45094 0.75 3.80531 0.75 2.63879 1.61468L1.52964 2.78884C1.00443 3.58289 0.81693 4.58665 0.75 6.12843L1.21448 6.59375C2.60026 6.59375 3.72366 7.783 3.72366 9.25C3.72366 10.717 2.60026 11.9062 1.21448 11.9062L0.75 12.3716C0.81693 13.9134 1.00443 14.9171 1.52964 15.7112L2.63879 16.8853C3.80531 17.75 5.45095 17.75 8.74218 17.75H12.757C16.0482 17.75 17.6939 17.75 18.8604 16.8853L19.9695 15.7112C20.4948 14.917 20.6823 13.9131 20.7492 12.3711V6.12895Z" stroke="white" stroke-width="1.5" stroke-linejoin="round"/>
</svg>
