<svg width="24" height="24" viewBox="0 0 24 24" fill="none" xmlns="http://www.w3.org/2000/svg">
<path d="M17.8333 2H6.16667C3.86917 2 2 3.86917 2 6.16667V7C2 9.2975 3.86917 11.1667 6.16667 11.1667H17.8333C20.1308 11.1667 22 9.2975 22 7V6.16667C22 3.86917 20.1308 2 17.8333 2ZM20.3333 7C20.3333 8.37833 19.2117 9.5 17.8333 9.5H6.16667C4.78833 9.5 3.66667 8.37833 3.66667 7V6.16667C3.66667 4.78833 4.78833 3.66667 6.16667 3.66667H17.8333C19.2117 3.66667 20.3333 4.78833 20.3333 6.16667V7ZM18.6667 7C18.6667 7.46 18.2942 7.83333 17.8333 7.83333H6.16667C5.70583 7.83333 5.33333 7.46 5.33333 7C5.33333 6.54 5.70583 6.16667 6.16667 6.16667H17.8333C18.2942 6.16667 18.6667 6.54 18.6667 7ZM12.8333 13.6667V21.1667C12.8333 21.6267 12.4608 22 12 22C11.5392 22 11.1667 21.6267 11.1667 21.1667V13.6667C11.1667 13.2067 11.5392 12.8333 12 12.8333C12.4608 12.8333 12.8333 13.2067 12.8333 13.6667ZM9.5 13.6667V18.6667C9.5 20.505 8.005 22 6.16667 22C4.32833 22 2.83333 20.505 2.83333 18.6667C2.83333 17.2175 3.7675 15.8358 5.05583 15.3808C5.49 15.2275 5.96583 15.4558 6.11917 15.8892C6.2725 16.3233 6.04417 16.7992 5.61083 16.9525C4.98833 17.1725 4.5 17.925 4.5 18.6667C4.5 19.5858 5.2475 20.3333 6.16667 20.3333C7.08583 20.3333 7.83333 19.5858 7.83333 18.6667V13.6667C7.83333 13.2067 8.20583 12.8333 8.66667 12.8333C9.1275 12.8333 9.5 13.2067 9.5 13.6667ZM21.1667 18.6667C21.1667 20.505 19.6717 22 17.8333 22C15.995 22 14.5 20.505 14.5 18.6667V13.6667C14.5 13.2067 14.8725 12.8333 15.3333 12.8333C15.7942 12.8333 16.1667 13.2067 16.1667 13.6667V18.6667C16.1667 19.5858 16.9142 20.3333 17.8333 20.3333C18.7525 20.3333 19.5 19.5858 19.5 18.6667C19.5 17.925 19.0117 17.1725 18.3892 16.9525C17.955 16.7992 17.7275 16.3233 17.8808 15.8892C18.035 15.455 18.51 15.2275 18.9442 15.3808C20.2325 15.8358 21.1667 17.2175 21.1667 18.6667Z" fill="#7065F0"/>
</svg>
