<svg xmlns="http://www.w3.org/2000/svg" width="25" height="24" fill="none" viewBox="0 0 25 24"><g clip-path="url(#clip0_1384_32713)"><path fill="#64748B" d="M2.436 2c-.993 0-1.8.84-1.8 1.875v16.25c0 1.035.807 1.875 1.8 1.875h3.6v-3.125c0-1.035.807-1.875 1.8-1.875.994 0 1.8.84 1.8 1.875V22h3.372a2.679 2.679 0 0 1-.371-1.371c0-1.832.967-3.43 2.4-4.266V3.875c0-1.035-.807-1.875-1.8-1.875h-10.8Zm.6 9.375c0-.344.27-.625.6-.625h1.2c.33 0 .6.281.6.625v1.25c0 .344-.27.625-.6.625h-1.2c-.33 0-.6-.281-.6-.625v-1.25Zm4.2-.625h1.2c.33 0 .6.281.6.625v1.25c0 .344-.27.625-.6.625h-1.2c-.33 0-.6-.281-.6-.625v-1.25c0-.344.27-.625.6-.625Zm3 .625c0-.344.27-.625.6-.625h1.2c.33 0 .6.281.6.625v1.25c0 .344-.27.625-.6.625h-1.2c-.33 0-.6-.281-.6-.625v-1.25Zm-6.6-5.625h1.2c.33 0 .6.281.6.625v1.25c0 .344-.27.625-.6.625h-1.2c-.33 0-.6-.281-.6-.625v-1.25c0-.344.27-.625.6-.625Zm3 .625c0-.344.27-.625.6-.625h1.2c.33 0 .6.281.6.625v1.25c0 .344-.27.625-.6.625h-1.2c-.33 0-.6-.281-.6-.625v-1.25Zm4.2-.625h1.2c.33 0 .6.281.6.625v1.25c0 .344-.27.625-.6.625h-1.2c-.33 0-.6-.281-.6-.625v-1.25c0-.344.27-.625.6-.625Zm11.4 6.875c0-.829-.316-1.624-.878-2.21a2.94 2.94 0 0 0-2.122-.915 2.94 2.94 0 0 0-2.12.915 3.192 3.192 0 0 0-.88 2.21c0 .829.316 1.624.88 2.21a2.94 2.94 0 0 0 2.12.915 2.94 2.94 0 0 0 2.122-.915c.562-.586.878-1.381.878-2.21Zm-8.4 8.012c0 .754.585 1.363 1.31 1.363h8.182c.724 0 1.309-.61 1.309-1.363 0-2.008-1.564-3.637-3.492-3.637h-3.817c-1.928 0-3.492 1.629-3.492 3.637Z"/></g><defs><clipPath id="clip0_1384_32713"><path fill="#fff" d="M.636 0h24v24h-24z"/></clipPath></defs></svg>