<svg width="24" height="24" viewBox="0 0 24 24" fill="none" xmlns="http://www.w3.org/2000/svg">
<g clip-path="url(#clip0_7593_2235)">
<path d="M20.25 13.6875V8.25C20.25 3.70093 16.5491 0 12 0C7.45093 0 3.75 3.70093 3.75 8.25V13.6875H0V21.1875C0 22.7384 1.2616 24 2.8125 24H21.1875C22.7384 24 24 22.7384 24 21.1875V13.6875H20.25ZM9.28125 15.5625H11.0625V22.125H9.28125V15.5625ZM7.40625 22.125H5.625V15.5625H7.40625V22.125ZM12.9375 15.5625H14.7188V22.125H12.9375V15.5625ZM16.5938 15.5625H18.375V22.125H16.5938V15.5625ZM12.9375 13.6875V9.46875H18.375V13.6875H12.9375ZM18.3413 7.59375H12.9375V1.94403C15.7969 2.36737 18.0438 4.69592 18.3413 7.59375ZM11.0625 1.94403V7.59375H5.65869C5.95624 4.69592 8.20312 2.36737 11.0625 1.94403ZM5.625 9.46875H11.0625V13.6875H5.625V9.46875ZM1.875 21.1875V15.5625H3.75V22.125H2.8125C2.29559 22.125 1.875 21.7044 1.875 21.1875ZM22.125 21.1875C22.125 21.7044 21.7044 22.125 21.1875 22.125H20.25V15.5625H22.125V21.1875Z" fill="#94A3B8"/>
</g>
<defs>
<clipPath id="clip0_7593_2235">
<rect width="24" height="24" fill="white"/>
</clipPath>
</defs>
</svg>
