<svg width="24" height="25" viewBox="0 0 24 25" fill="none" xmlns="http://www.w3.org/2000/svg">
<g clip-path="url(#clip0_1384_33097)">
<path d="M14.9672 8.16725C15.2578 8.36409 15.525 8.59373 15.7687 8.84212C16.0547 9.13738 16.425 9.35765 16.8328 9.47481C16.7578 9.89192 16.7953 10.3184 16.9359 10.7027C17.0766 11.087 17.1703 11.4947 17.2172 11.9165C17.2687 12.4039 17.4844 12.8773 17.8219 13.2522C17.4656 13.6506 17.25 14.1755 17.25 14.7519V17.0015C17.25 17.5779 17.4656 18.1028 17.8219 18.5012C17.4656 18.8995 17.25 19.4244 17.25 20.0009V22.2504C17.25 23.4924 18.2578 24.5 19.5 24.5H21.75C22.9922 24.5 24 23.4924 24 22.2504V19.9962C24 19.4197 23.7844 18.8948 23.4281 18.4965C23.7844 18.0981 24 17.5732 24 16.9968V14.7472C24 14.1708 23.7844 13.6459 23.4281 13.2475C23.7984 12.8351 24.0187 12.2774 23.9719 11.6447C23.8734 10.22 23.5219 8.86555 22.9688 7.62361C22.6828 6.97686 22.1578 6.57381 21.5719 6.41447C21.6703 5.81459 21.525 5.16784 21.0656 4.63825C20.2266 3.67282 19.2375 2.84329 18.1359 2.18717C17.5266 1.8263 16.8656 1.79818 16.2938 2.00439C16.0266 1.45606 15.5344 1.01552 14.85 0.846807C13.9312 0.617165 12.9797 0.5 12 0.5C11.0203 0.5 10.0688 0.617165 9.15469 0.837434C8.47031 1.00615 7.97813 1.44669 7.71094 1.99502C7.13906 1.78881 6.47812 1.81693 5.86875 2.1778C4.7625 2.83392 3.77344 3.66344 2.93906 4.62888C2.47969 5.15846 2.32969 5.80521 2.43281 6.4051C1.84688 6.56913 1.32187 6.97217 1.03594 7.61424C0.478125 8.86555 0.13125 10.22 0.028125 11.6447C-0.01875 12.2774 0.201562 12.8351 0.571875 13.2475C0.215625 13.6459 0 14.1708 0 14.7472V16.9968C0 17.5732 0.215625 18.0981 0.571875 18.4965C0.215625 18.8948 0 19.4197 0 19.9962V22.2458C0 23.4877 1.00781 24.4953 2.25 24.4953H4.5C5.74219 24.4953 6.75 23.4877 6.75 22.2458V19.9962C6.75 19.4197 6.53438 18.8948 6.17813 18.4965C6.53438 18.0981 6.75 17.5732 6.75 16.9968V14.7472C6.75 14.1708 6.53438 13.6459 6.17813 13.2475C6.51562 12.8726 6.72656 12.3992 6.78281 11.9118C6.82969 11.49 6.92812 11.0823 7.06406 10.698C7.20469 10.3137 7.24219 9.88254 7.16719 9.47012C7.575 9.35765 7.94531 9.13269 8.23125 8.83743C8.475 8.58904 8.74219 8.3594 9.03281 8.16257C9.37031 7.93292 9.65156 7.60486 9.83438 7.22525C10.2328 7.36585 10.6594 7.40334 11.0625 7.32835C11.3672 7.27211 11.6812 7.244 12 7.244C12.3188 7.244 12.6328 7.27211 12.9375 7.32835C13.3406 7.39865 13.7672 7.36585 14.1656 7.22525C14.3484 7.60486 14.6297 7.93292 14.9672 8.16257V8.16725ZM17.8734 7.93292C17.55 8.14851 17.1141 8.07821 16.8422 7.79701C16.5281 7.47364 16.1859 7.18307 15.8156 6.92999C15.5016 6.71441 15.3563 6.31605 15.4969 5.96456L15.5062 5.93644L16.3453 3.83685C16.5094 3.42912 16.9828 3.24634 17.3578 3.47129C18.3234 4.04774 19.1906 4.77417 19.9266 5.61775C20.2078 5.94112 20.1234 6.43322 19.7625 6.67223L19.7156 6.70504L17.8688 7.93292H17.8734ZM18.6328 9.22642L18.7031 9.17955L20.55 7.95167C20.9156 7.70797 21.4172 7.82982 21.5953 8.23286C22.0781 9.32015 22.3828 10.5059 22.4719 11.7525C22.5 12.1649 22.1625 12.5023 21.75 12.5023H19.5C19.0875 12.5023 18.7547 12.1649 18.7078 11.7525C18.6469 11.2088 18.525 10.6886 18.3422 10.1919C18.2156 9.84036 18.3188 9.43732 18.6328 9.23111V9.22642ZM19.5 19.2463H21.75C22.1625 19.2463 22.5 19.5838 22.5 19.9962V22.2458C22.5 22.6582 22.1625 22.9956 21.75 22.9956H19.5C19.0875 22.9956 18.75 22.6582 18.75 22.2458V19.9962C18.75 19.5838 19.0875 19.2463 19.5 19.2463ZM9.04688 3.27914L9.0375 3.2604C8.87813 2.85735 9.08906 2.40275 9.51094 2.29965C10.3078 2.1075 11.1422 2.00439 12 2.00439C12.8578 2.00439 13.6922 2.1075 14.4891 2.29965C14.9109 2.40275 15.1219 2.85735 14.9625 3.2604L14.9531 3.27914V3.28383L14.1141 5.38342C13.9688 5.7396 13.5797 5.92707 13.2047 5.85677C12.8156 5.78647 12.4125 5.74897 12 5.74897C11.5875 5.74897 11.1891 5.78647 10.7953 5.85677C10.4156 5.92707 10.0266 5.7396 9.88594 5.38342L9.04688 3.27914ZM6.64219 3.47129C7.01719 3.24634 7.49531 3.42912 7.65469 3.83685L8.49375 5.93644L8.50312 5.96456C8.64375 6.31605 8.49844 6.71441 8.18438 6.92999C7.81406 7.18307 7.46719 7.47364 7.15781 7.79701C6.88594 8.07821 6.45 8.14851 6.12656 7.93292L4.28438 6.70035L4.2375 6.66755C3.88125 6.42853 3.79219 5.93644 4.07344 5.61306C4.80938 4.76948 5.67188 4.04306 6.64219 3.46661V3.47129ZM2.40469 8.23286C2.58281 7.82982 3.08437 7.70797 3.45 7.95167L5.29688 9.17955L5.36719 9.22642C5.67656 9.43263 5.78437 9.83568 5.65781 10.1872C5.475 10.6839 5.35313 11.2042 5.29219 11.7478C5.24531 12.1602 4.91719 12.4977 4.5 12.4977H2.25C1.8375 12.4977 1.49531 12.1602 1.52812 11.7478C1.61719 10.5012 1.92188 9.31547 2.40469 8.22818V8.23286ZM5.25 14.7472V16.9968C5.25 17.4092 4.9125 17.7466 4.5 17.7466H2.25C1.8375 17.7466 1.5 17.4092 1.5 16.9968V14.7472C1.5 14.3348 1.8375 13.9974 2.25 13.9974H4.5C4.9125 13.9974 5.25 14.3348 5.25 14.7472ZM18.75 14.7472C18.75 14.3348 19.0875 13.9974 19.5 13.9974H21.75C22.1625 13.9974 22.5 14.3348 22.5 14.7472V16.9968C22.5 17.4092 22.1625 17.7466 21.75 17.7466H19.5C19.0875 17.7466 18.75 17.4092 18.75 16.9968V14.7472ZM1.5 19.9962C1.5 19.5838 1.8375 19.2463 2.25 19.2463H4.5C4.9125 19.2463 5.25 19.5838 5.25 19.9962V22.2458C5.25 22.6582 4.9125 22.9956 4.5 22.9956H2.25C1.8375 22.9956 1.5 22.6582 1.5 22.2458V19.9962ZM12.75 9.49824C12.75 9.08582 12.4125 8.74839 12 8.74839C11.5875 8.74839 11.25 9.08582 11.25 9.49824V22.2458C11.25 22.6582 11.5875 22.9956 12 22.9956C12.4125 22.9956 12.75 22.6582 12.75 22.2458V9.49824ZM9.75 10.9979C9.75 10.5855 9.4125 10.2481 9 10.2481C8.5875 10.2481 8.25 10.5855 8.25 10.9979V22.2458C8.25 22.6582 8.5875 22.9956 9 22.9956C9.4125 22.9956 9.75 22.6582 9.75 22.2458V10.9979ZM15.75 10.9979C15.75 10.5855 15.4125 10.2481 15 10.2481C14.5875 10.2481 14.25 10.5855 14.25 10.9979V22.2458C14.25 22.6582 14.5875 22.9956 15 22.9956C15.4125 22.9956 15.75 22.6582 15.75 22.2458V10.9979Z" fill="#64748B"/>
</g>
<defs>
<clipPath id="clip0_1384_33097">
<rect width="24" height="24" fill="white" transform="translate(0 0.5)"/>
</clipPath>
</defs>
</svg>
