<svg width="24" height="24" viewBox="0 0 24 24" fill="none" xmlns="http://www.w3.org/2000/svg">
<path d="M10.6678 3.557L9.097 4.1445C8.972 4.19033 8.88867 4.31117 8.88867 4.4445C8.88867 4.57783 8.972 4.69867 9.097 4.7445L10.6678 5.332L11.2553 6.90283C11.3012 7.02783 11.422 7.11117 11.5553 7.11117C11.6887 7.11117 11.8095 7.02783 11.8553 6.90283L12.4428 5.332L14.0137 4.7445C14.1387 4.69867 14.222 4.57783 14.222 4.4445C14.222 4.31117 14.1387 4.19033 14.0137 4.1445L12.4428 3.557L11.8553 1.98617C11.8095 1.86117 11.6887 1.77783 11.5553 1.77783C11.422 1.77783 11.3012 1.86117 11.2553 1.98617L10.6678 3.557ZM2.80951 18.2528C2.03034 19.032 2.03034 20.2987 2.80951 21.082L4.25117 22.5237C5.03034 23.3028 6.29701 23.3028 7.08034 22.5237L22.9678 6.632C23.747 5.85283 23.747 4.58617 22.9678 3.80283L21.5262 2.36533C20.747 1.58617 19.4803 1.58617 18.697 2.36533L2.80951 18.2528ZM21.0803 5.2195L16.7053 9.5945L15.7345 8.62367L20.1095 4.24867L21.0803 5.2195ZM1.20117 6.66117C1.01367 6.732 0.888672 6.91117 0.888672 7.11117C0.888672 7.31117 1.01367 7.49033 1.20117 7.56117L3.55534 8.4445L4.43867 10.7987C4.5095 10.9862 4.68867 11.1112 4.88867 11.1112C5.08867 11.1112 5.26784 10.9862 5.33867 10.7987L6.222 8.4445L8.57617 7.56117C8.76367 7.49033 8.88867 7.31117 8.88867 7.11117C8.88867 6.91117 8.76367 6.732 8.57617 6.66117L6.222 5.77783L5.33867 3.42367C5.26784 3.23617 5.08867 3.11117 4.88867 3.11117C4.68867 3.11117 4.5095 3.23617 4.43867 3.42367L3.55534 5.77783L1.20117 6.66117ZM15.8678 17.3278C15.6803 17.3987 15.5553 17.5778 15.5553 17.7778C15.5553 17.9778 15.6803 18.157 15.8678 18.2278L18.222 19.1112L19.1053 21.4653C19.1762 21.6528 19.3553 21.7778 19.5553 21.7778C19.7553 21.7778 19.9345 21.6528 20.0053 21.4653L20.8887 19.1112L23.2428 18.2278C23.4303 18.157 23.5553 17.9778 23.5553 17.7778C23.5553 17.5778 23.4303 17.3987 23.2428 17.3278L20.8887 16.4445L20.0053 14.0903C19.9345 13.9028 19.7553 13.7778 19.5553 13.7778C19.3553 13.7778 19.1762 13.9028 19.1053 14.0903L18.222 16.4445L15.8678 17.3278Z" fill="#7065F0"/>
</svg>
