<svg width="24" height="24" viewBox="0 0 24 24" fill="none" xmlns="http://www.w3.org/2000/svg">
<path d="M3.6 1.8C3.45938 1.6125 3.23438 1.5 3 1.5C2.76562 1.5 2.54063 1.6125 2.4 1.8L0.3 4.59844C0.103125 4.86094 0 5.175 0 5.49844V21C0 21.8297 0.670312 22.5 1.5 22.5H4.5C5.32969 22.5 6 21.8297 6 21V19.5H7.5V16.5H6V10.5H7.5V7.5H6V5.49844C6 5.175 5.89687 4.85625 5.7 4.59844L3.6 1.8ZM12.6 1.8C12.4594 1.6125 12.2344 1.5 12 1.5C11.7656 1.5 11.5406 1.6125 11.4 1.8L9.3 4.59844C9.10312 4.85625 9 5.175 9 5.49844V21C9 21.8297 9.67031 22.5 10.5 22.5H13.5C14.3297 22.5 15 21.8297 15 21V19.5H16.5V16.5H15V10.5H16.5V7.5H15V5.49844C15 5.175 14.8969 4.85625 14.7 4.59844L12.6 1.8ZM21 1.5C20.7656 1.5 20.5406 1.6125 20.4 1.8L18.3 4.59844C18.1031 4.85625 18 5.175 18 5.49844V21C18 21.8297 18.6703 22.5 19.5 22.5H22.5C23.3297 22.5 24 21.8297 24 21V5.49844C24 5.175 23.8969 4.85625 23.7 4.59844L21.6 1.8C21.4594 1.6125 21.2344 1.5 21 1.5Z" fill="#94A3B8"/>
</svg>
