<svg width="30" height="24" viewBox="0 0 30 24" fill="none" xmlns="http://www.w3.org/2000/svg">
<g clip-path="url(#clip0_7593_2253)">
<path d="M15.1406 2.39526C15.0516 2.35776 14.9484 2.35776 14.8594 2.39526L2.95312 7.22339C2.52656 7.39683 2.25 7.80933 2.25 8.26401V22.875C2.25 23.4984 1.74844 24 1.125 24C0.501562 24 0 23.4984 0 22.875V8.26401C0 6.89058 0.834375 5.65308 2.10469 5.13745L14.0156 0.309326C14.6484 0.0515137 15.3563 0.0515137 15.9891 0.309326L27.8953 5.13745C29.1703 5.65308 30.0047 6.89058 30.0047 8.26401V22.875C30.0047 23.4984 29.5031 24 28.8797 24C28.2562 24 27.7547 23.4984 27.7547 22.875V8.26401C27.7547 7.80464 27.4781 7.39214 27.0516 7.22339L15.1406 2.39526ZM6.75 11.25V22.875C6.75 23.4984 6.24844 24 5.625 24C5.00156 24 4.5 23.4984 4.5 22.875V10.875C4.5 9.83901 5.33906 8.99995 6.375 8.99995H23.625C24.6609 8.99995 25.5 9.83901 25.5 10.875V22.875C25.5 23.4984 24.9984 24 24.375 24C23.7516 24 23.25 23.4984 23.25 22.875V11.25H6.75ZM12.7453 15.2765L12.4172 16.5H17.5781L17.2266 15.2718C17.1797 15.1125 17.0344 15 16.8656 15H13.1063C12.9375 15 12.7875 15.1125 12.7453 15.2765ZM9.94687 17.0109L10.1625 16.2046L10.5703 14.6906C10.8797 13.5468 11.9203 12.75 13.1063 12.75H16.8656C18.0375 12.75 19.0688 13.5281 19.3875 14.6531L19.8281 16.1906L20.0672 17.025C20.8594 17.564 21.375 18.4734 21.375 19.5V22.875C21.375 23.4984 20.8734 24 20.25 24C19.6266 24 19.125 23.4984 19.125 22.875V22.5H10.875V22.875C10.875 23.4984 10.3734 24 9.75 24C9.12656 24 8.625 23.4984 8.625 22.875V19.5C8.625 18.464 9.15 17.5546 9.94687 17.0156V17.0109ZM19.125 19.5C19.125 19.0875 18.7875 18.75 18.375 18.75H11.625C11.2125 18.75 10.875 19.0875 10.875 19.5V20.25H19.125V19.5Z" fill="#94A3B8"/>
</g>
<defs>
<clipPath id="clip0_7593_2253">
<rect width="30" height="24" fill="white"/>
</clipPath>
</defs>
</svg>
