<svg width="24" height="24" viewBox="0 0 24 24" fill="none" xmlns="http://www.w3.org/2000/svg">
<g clip-path="url(#clip0_7593_2233)">
<path d="M23.9999 23.0001C23.9999 23.5521 23.5529 24.0001 22.9999 24.0001H0.999876C0.447876 24.0001 -0.000124008 23.5521 -0.000124008 23.0001C-0.000124008 22.4481 0.447876 22.0001 0.999876 22.0001H3.99988C3.99988 15.5361 1.65588 12.7651 0.107876 10.2001C-0.328124 9.47708 0.606876 8.74908 1.35588 9.13608C2.16688 9.55508 2.96288 10.0411 3.73188 10.5871C5.16088 14.4481 5.99888 18.2041 5.99888 21.1061V22.0011H9.99888V21.0011C9.99988 16.5001 12.1229 4.95008 19.8849 0.11308C20.5229 -0.28492 21.2549 0.44408 20.9119 1.11308C17.9149 6.95508 14.9999 14.0001 14.9999 21.0001V22.0001H16.9999V21.0001C16.9999 17.3201 17.8849 13.6201 19.0749 10.2431C20.4069 8.93208 21.8089 7.72808 22.7699 7.09308C23.4269 6.66008 24.2429 7.38008 23.9269 8.10008C22.0289 12.4251 20.0639 14.2881 20.0049 22.0001H22.9999C23.5529 22.0001 23.9999 22.4481 23.9999 23.0001ZM7.99988 21.1051V21.0001C7.99988 18.6821 8.55088 14.0851 10.3549 9.44108C8.59188 7.05208 6.03188 4.25108 4.24888 3.13008C3.55588 2.69408 2.71788 3.43208 3.09288 4.15908C5.92888 9.65708 7.99988 16.1571 7.99988 21.1051Z" fill="#94A3B8"/>
</g>
<defs>
<clipPath id="clip0_7593_2233">
<rect width="24" height="24" fill="white"/>
</clipPath>
</defs>
</svg>
