<svg width="24" height="25" viewBox="0 0 24 25" fill="none" xmlns="http://www.w3.org/2000/svg">
<path d="M9.5 20.625C6.39453 20.625 3.875 18.1055 3.875 15C3.875 14.4922 4.07422 13.6914 4.53906 12.6133C4.98828 11.5742 5.61719 10.4336 6.31641 9.30469C7.44922 7.47656 8.69922 5.78125 9.5 4.73438C10.3008 5.77734 11.5547 7.47656 12.6836 9.30469C13.3828 10.4336 14.0117 11.5703 14.4609 12.6133C14.9258 13.6914 15.125 14.4961 15.125 15C15.125 18.1055 12.6055 20.625 9.5 20.625ZM2 15C2 19.1406 5.35938 22.5 9.5 22.5C13.6406 22.5 17 19.1406 17 15C17 11.4375 11.9141 4.75391 10.4922 2.95703C10.2578 2.66406 9.91016 2.5 9.53516 2.5H9.46484C9.08984 2.5 8.74219 2.66406 8.50781 2.95703C7.08594 4.75391 2 11.4375 2 15ZM17.625 6.875C17.625 6.54348 17.7567 6.22554 17.9911 5.99112C18.2255 5.7567 18.5435 5.625 18.875 5.625C19.2065 5.625 19.5245 5.7567 19.7589 5.99112C19.9933 6.22554 20.125 6.54348 20.125 6.875C20.125 7.20652 19.9933 7.52446 19.7589 7.75888C19.5245 7.9933 19.2065 8.125 18.875 8.125C18.5435 8.125 18.2255 7.9933 17.9911 7.75888C17.7567 7.52446 17.625 7.20652 17.625 6.875ZM22 6.875C22 6.0462 21.6708 5.25134 21.0847 4.66529C20.4987 4.07924 19.7038 3.75 18.875 3.75C18.0462 3.75 17.2513 4.07924 16.6653 4.66529C16.0792 5.25134 15.75 6.0462 15.75 6.875C15.75 7.7038 16.0792 8.49866 16.6653 9.08471C17.2513 9.67076 18.0462 10 18.875 10C19.7038 10 20.4987 9.67076 21.0847 9.08471C21.6708 8.49866 22 7.7038 22 6.875Z" fill="#7065F0"/>
</svg>
