<svg width="24" height="24" viewBox="0 0 24 24" fill="none" xmlns="http://www.w3.org/2000/svg">
<path d="M16.5 2.25C17.7422 2.25 18.75 3.25781 18.75 4.5V7.5H16.5V5.625C16.5 5.00156 15.9984 4.5 15.375 4.5C14.7516 4.5 14.25 5.00156 14.25 5.625V7.5H5.25V4.5C5.25 3.25781 6.25781 2.25 7.5 2.25H16.5ZM14.25 9.75V16.125C14.25 16.7484 14.7516 17.25 15.375 17.25C15.9984 17.25 16.5 16.7484 16.5 16.125V9.75H18.75V21C18.75 21.4125 18.4125 21.75 18 21.75H6C5.5875 21.75 5.25 21.4125 5.25 21V9.75H14.25ZM7.5 0C5.01562 0 3 2.01562 3 4.5V21C3 22.6547 4.34531 24 6 24H18C19.6547 24 21 22.6547 21 21V4.5C21 2.01562 18.9844 0 16.5 0H7.5Z" fill="#7065F0"/>
</svg>
