<svg width="24" height="24" viewBox="0 0 24 24" fill="none" xmlns="http://www.w3.org/2000/svg">
<path d="M4.85714 2C3.28125 2 2 3.28125 2 4.85714V19.1429C2 20.7188 3.28125 22 4.85714 22H19.1429C20.7188 22 22 20.7188 22 19.1429V4.85714C22 3.28125 20.7188 2 19.1429 2H4.85714ZM10.5714 12H12.7143C13.5045 12 14.1429 11.3616 14.1429 10.5714C14.1429 9.78125 13.5045 9.14286 12.7143 9.14286H10.5714V12ZM12.7143 14.8571H10.5714V16.2857C10.5714 17.0759 9.93304 17.7143 9.14286 17.7143C8.35268 17.7143 7.71429 17.0759 7.71429 16.2857V13.4286V8.07143C7.71429 7.08482 8.51339 6.28571 9.5 6.28571H12.7143C15.0804 6.28571 17 8.20536 17 10.5714C17 12.9375 15.0804 14.8571 12.7143 14.8571Z" fill="#7065F0"/>
</svg>
