<svg width="24" height="24" viewBox="0 0 24 24" fill="none" xmlns="http://www.w3.org/2000/svg">
<path d="M12.8957 8.76658L18.6624 13.7124C18.5957 13.7499 18.529 13.7958 18.4624 13.8374C17.7124 14.3541 16.7915 14.6833 15.9957 14.6833C15.179 14.6833 14.2957 14.3624 13.529 13.8374C12.6082 13.1916 11.379 13.1916 10.4582 13.8374C9.7457 14.3291 8.87487 14.6833 7.99153 14.6833C7.5707 14.6833 7.11237 14.5916 6.66237 14.4249C6.7957 9.38325 10.9249 5.33325 15.9999 5.33325H18.6665C19.404 5.33325 19.9999 5.92909 19.9999 6.66659C19.9999 7.40409 19.404 7.99992 18.6665 7.99992H15.9999C14.879 7.99992 13.8207 8.27492 12.8957 8.76658ZM6.66653 7.99992C6.66653 8.70716 6.38558 9.38544 5.88549 9.88554C5.38539 10.3856 4.70711 10.6666 3.99987 10.6666C3.29262 10.6666 2.61435 10.3856 2.11425 9.88554C1.61415 9.38544 1.3332 8.70716 1.3332 7.99992C1.3332 7.29267 1.61415 6.6144 2.11425 6.1143C2.61435 5.6142 3.29262 5.33325 3.99987 5.33325C4.70711 5.33325 5.38539 5.6142 5.88549 6.1143C6.38558 6.6144 6.66653 7.29267 6.66653 7.99992ZM12.7707 14.9124C13.7082 15.5583 14.854 15.9999 15.9999 15.9999C17.1207 15.9999 18.3082 15.5499 19.2249 14.9124C19.7207 14.5583 20.3957 14.5874 20.8582 14.9833C21.4582 15.4791 22.2124 15.8583 22.9665 16.0333C23.6832 16.1999 24.129 16.9166 23.9624 17.6333C23.7957 18.3499 23.079 18.7958 22.3624 18.6291C21.3415 18.3916 20.4915 17.9416 19.9374 17.5874C18.729 18.2374 17.3749 18.6666 15.9999 18.6666C14.6707 18.6666 13.4749 18.2541 12.6499 17.8791C12.4082 17.7666 12.1874 17.6583 11.9999 17.5583C11.8124 17.6583 11.5957 17.7708 11.3499 17.8791C10.5249 18.2541 9.32903 18.6666 7.99987 18.6666C6.62487 18.6666 5.2707 18.2374 4.06237 17.5916C3.50404 17.9416 2.6582 18.3958 1.63737 18.6333C0.920702 18.7999 0.204035 18.3541 0.0373686 17.6374C-0.129298 16.9208 0.316535 16.2041 1.0332 16.0374C1.78737 15.8624 2.54154 15.4833 3.14154 14.9874C3.60404 14.5958 4.27904 14.5666 4.77487 14.9166C5.6957 15.5499 6.87903 15.9999 7.99987 15.9999C9.1457 15.9999 10.2915 15.5583 11.229 14.9124C11.6915 14.5833 12.3082 14.5833 12.7707 14.9124Z" fill="#7065F0"/>
</svg>
