<svg width="24" height="24" viewBox="0 0 24 24" fill="none" xmlns="http://www.w3.org/2000/svg">
<g clip-path="url(#clip0_7593_2106)">
<path d="M9 1.5C9 0.670312 9.67031 0 10.5 0C17.9578 0 24 6.04219 24 13.5C24 14.3297 23.3297 15 22.5 15C21.6703 15 21 14.3297 21 13.5C21 7.70156 16.2984 3 10.5 3C9.67031 3 9 2.32969 9 1.5ZM2.84062 10.3406L7.72031 15.2203L9.05156 13.8891C9.01875 13.7672 9 13.6359 9 13.5C9 12.6703 9.67031 12 10.5 12C11.3297 12 12 12.6703 12 13.5C12 14.3297 11.3297 15 10.5 15C10.3641 15 10.2375 14.9812 10.1109 14.9484L8.77969 16.2797L13.6594 21.1594C14.3391 21.8391 14.2125 22.9781 13.3172 23.3297C12.2109 23.7609 11.0109 24 9.75 24C4.36406 24 0 19.6359 0 14.25C0 12.9891 0.239062 11.7891 0.675 10.6828C1.02656 9.79219 2.16563 9.66094 2.84531 10.3406H2.84062ZM10.5 4.5C15.4688 4.5 19.5 8.53125 19.5 13.5C19.5 14.3297 18.8297 15 18 15C17.1703 15 16.5 14.3297 16.5 13.5C16.5 10.1859 13.8141 7.5 10.5 7.5C9.67031 7.5 9 6.82969 9 6C9 5.17031 9.67031 4.5 10.5 4.5Z" fill="#7065F0"/>
</g>
<defs>
<clipPath id="clip0_7593_2106">
<rect width="24" height="24" fill="white"/>
</clipPath>
</defs>
</svg>
