<svg width="24" height="24" viewBox="0 0 24 24" fill="none" xmlns="http://www.w3.org/2000/svg">
<g clip-path="url(#clip0_7593_2105)">
<path d="M12.2859 0.0374512C12.0984 -0.0141113 11.9016 -0.0141113 11.7141 0.0374512L4.58906 1.91245C4.18594 2.02026 3.87187 2.33901 3.77812 2.74683C3.68437 3.15464 3.825 3.5812 4.14375 3.85308L5.25 4.80464V5.19839C5.25 5.69995 5.49844 6.17339 5.95781 6.37964C7.0875 6.88589 9.17344 7.50464 12 7.50464C14.8266 7.50464 16.9125 6.88589 18.0422 6.37964C18.5016 6.17339 18.75 5.69995 18.75 5.19839V4.80464L19.8563 3.85776C20.175 3.58589 20.3156 3.15933 20.2219 2.75151C20.1281 2.3437 19.8141 2.02026 19.4109 1.91714L12.2859 0.0421387V0.0374512ZM12.1406 2.27808L13.6406 2.87808C13.7812 2.93433 13.875 3.07495 13.875 3.22495C13.875 4.0312 13.5469 5.38589 12.1453 5.97183C12.0516 6.00933 11.9484 6.00933 11.8547 5.97183C10.4531 5.38589 10.125 4.0312 10.125 3.22495C10.125 3.07026 10.2188 2.93433 10.3594 2.87808L11.8594 2.27808C11.9484 2.24058 12.0469 2.24058 12.1359 2.27808H12.1406ZM6.09844 7.91245C6.03281 8.26401 6 8.62964 6 8.99995C6 12.314 8.68594 15 12 15C15.3141 15 18 12.314 18 8.99995C18 8.62964 17.9672 8.26401 17.9016 7.91245C16.0687 8.61558 14.0813 8.99995 12 8.99995C9.91875 8.99995 7.93125 8.61558 6.09844 7.91245ZM10.2938 17.5828L11.25 19.5L10.6781 21.7921L7.73438 16.889C7.59375 16.6546 7.33125 16.5093 7.05937 16.5421C3.92812 16.9125 1.5 19.5703 1.5 22.8C1.5 23.4609 2.03906 24 2.7 24H10.5H13.5H21.3C21.9609 24 22.5 23.4609 22.5 22.8C22.5 19.5703 20.0719 16.9125 16.9406 16.5421C16.6687 16.5093 16.4062 16.6546 16.2656 16.889L13.3219 21.7921L12.75 19.5L13.7062 17.5875C13.9547 17.0906 13.5938 16.5 13.0359 16.5H10.9641C10.4062 16.5 10.0453 17.0859 10.2938 17.5875V17.5828ZM18.3563 19.3828L18.6094 20.1609H19.425C19.5891 20.1609 19.7344 20.264 19.7812 20.4187C19.8281 20.5734 19.7766 20.7421 19.6453 20.8406L18.9844 21.3187L19.2375 22.0968C19.2891 22.2515 19.2328 22.4203 19.1016 22.5187C18.9703 22.6171 18.7922 22.6125 18.6609 22.5187L18 22.0359L17.3391 22.5187C17.2078 22.6125 17.0297 22.6171 16.8984 22.5187C16.7672 22.4203 16.7109 22.2515 16.7625 22.0968L17.0156 21.3187L16.3547 20.8406C16.2234 20.7468 16.1672 20.5734 16.2188 20.4187C16.2703 20.264 16.4156 20.1609 16.575 20.1609H17.3906L17.6437 19.3828C17.6953 19.2281 17.8359 19.125 18 19.125C18.1641 19.125 18.3047 19.2281 18.3563 19.3828Z" fill="#7065F0"/>
</g>
<defs>
<clipPath id="clip0_7593_2105">
<rect width="24" height="24" fill="white"/>
</clipPath>
</defs>
</svg>
