<svg xmlns="http://www.w3.org/2000/svg" width="25" height="24" fill="none" viewBox="0 0 25 24"><path fill="#64748B" d="M3.56 4.842V4H1.91V19.719h1.65v-3.368H22.258V20h1.65v-8.422c0-2.325-1.846-4.21-4.125-4.21H11.81v7.299H3.56V4.842Zm18.7 6.737v3.088h-8.8V9.053h6.324c1.368 0 2.475 1.13 2.475 2.526ZM6.31 10.456c0-.372.144-.73.402-.992.258-.264.608-.411.972-.411.365 0 .715.147.972.41.258.264.403.62.403.993 0 .372-.145.73-.403.993a1.36 1.36 0 0 1-.972.41 1.36 1.36 0 0 1-.972-.41 1.418 1.418 0 0 1-.403-.993Zm4.4 0a3.12 3.12 0 0 0-.887-2.183 2.994 2.994 0 0 0-2.139-.905c-.802 0-1.572.326-2.139.905a3.12 3.12 0 0 0-.886 2.183c0 .82.319 1.604.886 2.184a2.994 2.994 0 0 0 2.14.904c.801 0 1.57-.325 2.138-.905a3.12 3.12 0 0 0 .886-2.183Z"/></svg>