<svg width="24" height="24" viewBox="0 0 24 24" fill="none" xmlns="http://www.w3.org/2000/svg">
<g clip-path="url(#clip0_7593_2234)">
<path d="M21.122 13.0001C21.885 12.9993 22.6166 12.6958 23.1562 12.1562C23.6957 11.6167 23.9992 10.8851 24 10.1221C23.9989 9.31549 23.8076 8.52053 23.4417 7.80172C23.0758 7.08292 22.5455 6.46053 21.894 5.98507L15.009 0.97907C14.1356 0.340813 13.0818 -0.00317383 12 -0.00317383C10.9182 -0.00317383 9.86444 0.340813 8.991 0.97907L2.106 5.98507C1.45445 6.46053 0.924198 7.08292 0.55828 7.80172C0.192362 8.52053 0.00109332 9.31549 0 10.1221C0.000794154 10.8851 0.304266 11.6167 0.843824 12.1562C1.38338 12.6958 2.11495 12.9993 2.878 13.0001H11V23.0001C11 23.2653 11.1054 23.5196 11.2929 23.7072C11.4804 23.8947 11.7348 24.0001 12 24.0001C12.2652 24.0001 12.5196 23.8947 12.7071 23.7072C12.8946 23.5196 13 23.2653 13 23.0001V13.0001H21.122ZM15.5 8.07507C15.827 8.56649 16.001 9.14381 16 9.73407V11.0001H13V4.31307L15.5 8.07507ZM20.718 7.60007C21.1151 7.88993 21.4381 8.2694 21.6609 8.70763C21.8836 9.14586 21.9998 9.63047 22 10.1221C21.9997 10.3548 21.9071 10.578 21.7425 10.7426C21.5779 10.9072 21.3548 10.9998 21.122 11.0001H18V9.73407C18.0009 8.74984 17.7104 7.78737 17.165 6.96807L14.665 3.19807L20.718 7.60007ZM2 10.1221C2.00018 9.63047 2.11638 9.14586 2.33915 8.70763C2.56191 8.2694 2.88495 7.88993 3.282 7.60007L9.339 3.20007L6.839 6.97007C6.29257 7.78836 6.00064 8.75011 6 9.73407V11.0001H2.878C2.64522 10.9998 2.42205 10.9072 2.25745 10.7426C2.09285 10.578 2.00026 10.3548 2 10.1221ZM8 11.0001V9.73407C7.99903 9.14381 8.17302 8.56649 8.5 8.07507L11 4.31307V11.0001H8Z" fill="#94A3B8"/>
<path d="M4 19H2V16C2 15.7348 1.89464 15.4804 1.70711 15.2929C1.51957 15.1054 1.26522 15 1 15C0.734784 15 0.48043 15.1054 0.292893 15.2929C0.105357 15.4804 0 15.7348 0 16L0 23C0 23.2652 0.105357 23.5196 0.292893 23.7071C0.48043 23.8946 0.734784 24 1 24C1.26522 24 1.51957 23.8946 1.70711 23.7071C1.89464 23.5196 2 23.2652 2 23V21H4C4.26522 21 4.51957 21.1054 4.70711 21.2929C4.89464 21.4804 5 21.7348 5 22V23C5 23.2652 5.10536 23.5196 5.29289 23.7071C5.48043 23.8946 5.73478 24 6 24C6.26522 24 6.51957 23.8946 6.70711 23.7071C6.89464 23.5196 7 23.2652 7 23V22C7 21.2044 6.68393 20.4413 6.12132 19.8787C5.55871 19.3161 4.79565 19 4 19Z" fill="#94A3B8"/>
<path d="M23 15C22.7348 15 22.4804 15.1054 22.2929 15.2929C22.1054 15.4804 22 15.7348 22 16V19H20C19.2044 19 18.4413 19.3161 17.8787 19.8787C17.3161 20.4413 17 21.2044 17 22V23C17 23.2652 17.1054 23.5196 17.2929 23.7071C17.4804 23.8946 17.7348 24 18 24C18.2652 24 18.5196 23.8946 18.7071 23.7071C18.8946 23.5196 19 23.2652 19 23V22C19 21.7348 19.1054 21.4804 19.2929 21.2929C19.4804 21.1054 19.7348 21 20 21H22V23C22 23.2652 22.1054 23.5196 22.2929 23.7071C22.4804 23.8946 22.7348 24 23 24C23.2652 24 23.5196 23.8946 23.7071 23.7071C23.8946 23.5196 24 23.2652 24 23V16C24 15.7348 23.8946 15.4804 23.7071 15.2929C23.5196 15.1054 23.2652 15 23 15Z" fill="#94A3B8"/>
</g>
<defs>
<clipPath id="clip0_7593_2234">
<rect width="24" height="24" fill="white"/>
</clipPath>
</defs>
</svg>
