<svg width="30" height="24" viewBox="0 0 30 24" fill="none" xmlns="http://www.w3.org/2000/svg">
<g clip-path="url(#clip0_7593_2107)">
<path d="M3 3V16.5H27V3H3ZM0 3C0 1.34531 1.34531 0 3 0H27C28.6547 0 30 1.34531 30 3V16.5C30 18.1547 28.6547 19.5 27 19.5H3C1.34531 19.5 0 18.1547 0 16.5V3ZM6 21H24C24.8297 21 25.5 21.6703 25.5 22.5C25.5 23.3297 24.8297 24 24 24H6C5.17031 24 4.5 23.3297 4.5 22.5C4.5 21.6703 5.17031 21 6 21Z" fill="#7065F0"/>
</g>
<defs>
<clipPath id="clip0_7593_2107">
<rect width="30" height="24" fill="white"/>
</clipPath>
</defs>
</svg>
