<svg xmlns="http://www.w3.org/2000/svg" width="24" height="24" fill="none" viewBox="0 0 24 24"><path fill="#64748B" d="M12.594 2.223a.903.903 0 0 0-1.188 0l-10.083 8.75a.954.954 0 0 0-.107 1.32.904.904 0 0 0 1.29.11l.94-.813v7.285C3.447 20.602 4.815 22 6.503 22h11c1.688 0 3.055-1.398 3.055-3.125V11.59l.936.812a.9.9 0 0 0 1.291-.109.954.954 0 0 0-.107-1.32l-10.083-8.75ZM5.28 18.875V10l6.722-5.832L18.724 10v8.875c0 .691-.546 1.25-1.222 1.25h-1.833v-5.938c0-.863-.684-1.562-1.528-1.562H9.863c-.844 0-1.528.7-1.528 1.563v5.937H6.502c-.676 0-1.222-.559-1.222-1.25Zm4.889 1.25V14.5h3.666v5.625H10.17Z"/></svg>