<svg width="24" height="25" viewBox="0 0 24 25" fill="none" xmlns="http://www.w3.org/2000/svg">
<path d="M2.19414 9.98929C4.80893 7.63929 8.23932 6.21429 11.9987 6.21429C15.7582 6.21429 19.1886 7.63929 21.8034 9.98929C22.1499 10.3036 22.682 10.2679 22.99 9.91071C23.298 9.55357 23.263 9.01429 22.913 8.7C20.0042 6.08571 16.1817 4.5 11.9987 4.5C7.81577 4.5 3.99334 6.08571 1.08451 8.7C0.737971 9.01429 0.702967 9.55357 1.0075 9.91071C1.31204 10.2679 1.8441 10.3 2.19414 9.98929ZM11.9987 12.5C14.26 12.5 16.3217 13.3821 17.8654 14.8286C18.2084 15.15 18.737 15.125 19.052 14.775C19.3671 14.425 19.3426 13.8857 18.9995 13.5643C17.1583 11.8393 14.6975 10.7857 11.9987 10.7857C9.29994 10.7857 6.83916 11.8393 4.99445 13.5679C4.65141 13.8893 4.63041 14.4286 4.94195 14.7786C5.25348 15.1286 5.78554 15.15 6.12858 14.8321C7.67576 13.3821 9.73749 12.5 11.9987 12.5ZM13.959 18.5C13.959 18.2374 13.9083 17.9773 13.8098 17.7346C13.7112 17.492 13.5669 17.2715 13.3848 17.0858C13.2028 16.9001 12.9867 16.7528 12.7489 16.6522C12.5111 16.5517 12.2562 16.5 11.9987 16.5C11.7413 16.5 11.4864 16.5517 11.2486 16.6522C11.0108 16.7528 10.7947 16.9001 10.6127 17.0858C10.4306 17.2715 10.2862 17.492 10.1877 17.7346C10.0892 17.9773 10.0385 18.2374 10.0385 18.5C10.0385 18.7626 10.0892 19.0227 10.1877 19.2654C10.2862 19.508 10.4306 19.7285 10.6127 19.9142C10.7947 20.0999 11.0108 20.2472 11.2486 20.3478C11.4864 20.4483 11.7413 20.5 11.9987 20.5C12.2562 20.5 12.5111 20.4483 12.7489 20.3478C12.9867 20.2472 13.2028 20.0999 13.3848 19.9142C13.5669 19.7285 13.7112 19.508 13.8098 19.2654C13.9083 19.0227 13.959 18.7626 13.959 18.5Z" fill="#7065F0"/>
</svg>
